<svg width="22" height="21" viewBox="0 0 22 21" fill="none" xmlns="http://www.w3.org/2000/svg">
<path d="M13.75 10.1391C13.75 8.73656 12.5217 7.60435 11 7.60435C9.47836 7.60435 8.25002 8.73656 8.25002 10.1391C8.25002 11.5417 9.47836 12.6739 11 12.6739C11.3759 12.6739 11.7425 12.6063 12.0725 12.4711" stroke="#292D32" stroke-width="1.5" stroke-miterlimit="10" stroke-linecap="round" stroke-linejoin="round"/>
<path d="M6.30746 17.3887L7.30663 17.921C8.03079 18.3181 8.9658 18.0815 9.39667 17.414L9.4975 17.2535C10.3225 15.927 11.6792 15.927 12.5133 17.2535L12.6142 17.414C13.045 18.0815 13.98 18.3181 14.7042 17.921L16.29 17.0845C17.1242 16.6452 17.4083 15.6566 16.9317 14.8962C16.0975 13.5696 16.7758 12.4881 18.435 12.4881C19.3883 12.4881 20.1767 11.7699 20.1767 10.8827V9.39567C20.1767 8.51695 19.3975 7.79029 18.435 7.79029C17.5092 7.79029 16.8858 7.45231 16.6658 6.92001C16.4917 6.506 16.565 5.96524 16.9317 5.38224C17.4083 4.61336 17.1242 3.63324 16.29 3.19388L15.5475 2.80521" stroke="#292D32" stroke-width="1.5" stroke-miterlimit="10" stroke-linecap="round" stroke-linejoin="round"/>
<path d="M12.5033 3.02479C11.6783 4.35133 10.3217 4.35133 9.4875 3.02479L9.38667 2.86425C8.965 2.19676 8.03 1.96018 7.30583 2.3573L5.72 3.19377C4.88583 3.63314 4.60166 4.6217 5.07833 5.39059C5.9125 6.70867 5.23417 7.79018 3.575 7.79018C2.62166 7.79018 1.83333 8.50834 1.83333 9.39551V10.8826C1.83333 11.7613 2.6125 12.4879 3.575 12.4879C5.23417 12.4879 5.9125 13.5695 5.07833 14.896" stroke="#292D32" stroke-width="1.5" stroke-miterlimit="10" stroke-linecap="round" stroke-linejoin="round"/>
</svg>
